<svg width="183" height="183" viewBox="0 0 183 183" fill="none" xmlns="http://www.w3.org/2000/svg">
<g clip-path="url(#clip0_105_4)">
<path d="M183 0H0V183H183V0Z" fill="#F0981D"/>
<path d="M22.0684 102.182H40.2729L59.5002 149.091H60.3184L79.5457 102.182H97.7502V172H83.432V126.557H82.8525L64.7843 171.659H55.0343L36.9661 126.386H36.3866V172H22.0684V102.182ZM147.787 122.261C147.514 119.511 146.344 117.375 144.276 115.852C142.207 114.33 139.401 113.568 135.855 113.568C133.446 113.568 131.412 113.909 129.753 114.591C128.094 115.25 126.821 116.17 125.935 117.352C125.071 118.534 124.639 119.875 124.639 121.375C124.594 122.625 124.855 123.716 125.423 124.648C126.014 125.58 126.821 126.386 127.844 127.068C128.866 127.727 130.048 128.307 131.389 128.807C132.73 129.284 134.162 129.693 135.685 130.034L141.957 131.534C145.003 132.216 147.798 133.125 150.344 134.261C152.889 135.398 155.094 136.795 156.957 138.455C158.821 140.114 160.264 142.068 161.287 144.318C162.332 146.568 162.866 149.148 162.889 152.057C162.866 156.33 161.776 160.034 159.616 163.17C157.48 166.284 154.389 168.705 150.344 170.432C146.321 172.136 141.469 172.989 135.787 172.989C130.151 172.989 125.241 172.125 121.06 170.398C116.901 168.67 113.651 166.114 111.31 162.727C108.991 159.318 107.776 155.102 107.662 150.08H121.946C122.105 152.42 122.776 154.375 123.957 155.943C125.162 157.489 126.764 158.659 128.764 159.455C130.787 160.227 133.071 160.614 135.616 160.614C138.116 160.614 140.287 160.25 142.128 159.523C143.991 158.795 145.435 157.784 146.457 156.489C147.48 155.193 147.991 153.705 147.991 152.023C147.991 150.455 147.526 149.136 146.594 148.068C145.685 147 144.344 146.091 142.571 145.341C140.821 144.591 138.673 143.909 136.128 143.295L128.526 141.386C122.639 139.955 117.991 137.716 114.582 134.67C111.173 131.625 109.48 127.523 109.503 122.364C109.48 118.136 110.605 114.443 112.878 111.284C115.173 108.125 118.321 105.659 122.321 103.886C126.321 102.114 130.866 101.227 135.957 101.227C141.139 101.227 145.662 102.114 149.526 103.886C153.412 105.659 156.435 108.125 158.594 111.284C160.753 114.443 161.866 118.102 161.935 122.261H147.787Z" fill="white"/>
</g>
<defs>
<clipPath id="clip0_105_4">
<rect width="183" height="183" fill="white"/>
</clipPath>
</defs>
</svg>
